<svg width="24" height="24" viewBox="0 0 24 24" fill="currentColor" xmlns="http://www.w3.org/2000/svg">
<path d="M9.88806 10.0664C9.20406 10.0664 8.66406 10.6664 8.66406 11.3984C8.66406 12.1304 9.21606 12.7304 9.88806 12.7304C10.5721 12.7304 11.1121 12.1304 11.1121 11.3984C11.1241 10.6664 10.5721 10.0664 9.88806 10.0664ZM14.2681 10.0664C13.5841 10.0664 13.0441 10.6664 13.0441 11.3984C13.0441 12.1304 13.5961 12.7304 14.2681 12.7304C14.9521 12.7304 15.4921 12.1304 15.4921 11.3984C15.4921 10.6664 14.9521 10.0664 14.2681 10.0664Z"/>
<path d="M20.1025 0H4.0225C2.6665 0 1.5625 1.104 1.5625 2.472V18.696C1.5625 20.064 2.6665 21.168 4.0225 21.168H17.6305L16.9945 18.948L18.5305 20.376L19.9825 21.72L22.5625 24V2.472C22.5625 1.104 21.4585 0 20.1025 0ZM15.4705 15.672C15.4705 15.672 15.0385 15.156 14.6785 14.7C16.2505 14.256 16.8505 13.272 16.8505 13.272C16.3585 13.596 15.8905 13.824 15.4705 13.98C14.8705 14.232 14.2945 14.4 13.7305 14.496C12.5785 14.712 11.5225 14.652 10.6225 14.484C9.9385 14.352 9.3505 14.16 8.8585 13.968C8.5825 13.86 8.2825 13.728 7.9825 13.56C7.9465 13.536 7.9105 13.524 7.8745 13.5C7.8505 13.488 7.8385 13.476 7.8265 13.464C7.6105 13.344 7.4905 13.26 7.4905 13.26C7.4905 13.26 8.0665 14.22 9.5905 14.676C9.2305 15.132 8.7865 15.672 8.7865 15.672C6.1345 15.588 5.1265 13.848 5.1265 13.848C5.1265 9.984 6.8545 6.852 6.8545 6.852C8.5825 5.556 10.2265 5.592 10.2265 5.592L10.3465 5.736C8.1865 6.36 7.1905 7.308 7.1905 7.308C7.1905 7.308 7.4545 7.164 7.8985 6.96C9.1825 6.396 10.2025 6.24 10.6225 6.204C10.6945 6.192 10.7545 6.18 10.8265 6.18C11.5585 6.084 12.3865 6.06 13.2505 6.156C14.3905 6.288 15.6145 6.624 16.8625 7.308C16.8625 7.308 15.9145 6.408 13.8745 5.784L14.0425 5.592C14.0425 5.592 15.6865 5.556 17.4145 6.852C17.4145 6.852 19.1425 9.984 19.1425 13.848C19.1425 13.848 18.1225 15.588 15.4705 15.672Z"/>
</svg>
