<svg width="16" height="16" viewBox="0 0 16 16" fill="none" xmlns="http://www.w3.org/2000/svg">
<path d="M1.33203 2.16536C1.33203 1.70513 1.70513 1.33203 2.16536 1.33203H13.832C14.2923 1.33203 14.6654 1.70513 14.6654 2.16536V3.83203C14.6654 4.29227 14.2923 4.66536 13.832 4.66536H2.16536C1.70513 4.66536 1.33203 4.29227 1.33203 3.83203V2.16536Z" stroke="#6666FF" stroke-width="2" stroke-linecap="round" stroke-linejoin="round"/>
<path d="M1.33203 8.83203C1.33203 8.37179 1.70513 7.9987 2.16536 7.9987H7.16536C7.6256 7.9987 7.9987 8.37179 7.9987 8.83203V13.832C7.9987 14.2923 7.6256 14.6654 7.16536 14.6654H2.16536C1.70513 14.6654 1.33203 14.2923 1.33203 13.832V8.83203Z" stroke="#6666FF" stroke-width="2" stroke-linecap="round" stroke-linejoin="round"/>
<path d="M11.332 8.83203C11.332 8.37179 11.7051 7.9987 12.1654 7.9987H13.832C14.2923 7.9987 14.6654 8.37179 14.6654 8.83203V13.832C14.6654 14.2923 14.2923 14.6654 13.832 14.6654H12.1654C11.7051 14.6654 11.332 14.2923 11.332 13.832V8.83203Z" stroke="#6666FF" stroke-width="2" stroke-linecap="round" stroke-linejoin="round"/>
</svg>
