<svg width="24" height="26" viewBox="0 0 24 26" fill="none" xmlns="http://www.w3.org/2000/svg">
<path fill-rule="evenodd" clip-rule="evenodd" d="M5.99961 11.7984V9.39844C5.99961 6.08473 8.6859 3.39844 11.9996 3.39844C15.3133 3.39844 17.9996 6.08473 17.9996 9.39844V11.7984C19.3251 11.7984 20.3996 12.873 20.3996 14.1984V20.1984C20.3996 21.5239 19.3251 22.5984 17.9996 22.5984H5.99961C4.67413 22.5984 3.59961 21.5239 3.59961 20.1984V14.1984C3.59961 12.873 4.67413 11.7984 5.99961 11.7984ZM15.5996 9.39844V11.7984H8.39961V9.39844C8.39961 7.41021 10.0114 5.79844 11.9996 5.79844C13.9878 5.79844 15.5996 7.41021 15.5996 9.39844Z" fill="#5252CC"/>
</svg>
