<svg width="32" height="32" viewBox="0 0 32 32" fill="none" xmlns="http://www.w3.org/2000/svg">
<path fill-rule="evenodd" clip-rule="evenodd" d="M16 29C23.1797 29 29 23.1797 29 16C29 8.8203 23.1797 3 16 3C8.8203 3 3 8.8203 3 16C3 23.1797 8.8203 29 16 29ZM15.2764 11.3979C14.7777 11.0655 14.1366 11.0345 13.6082 11.3173C13.0799 11.6001 12.75 12.1507 12.75 12.75V19.25C12.75 19.8493 13.0799 20.3999 13.6082 20.6827C14.1366 20.9655 14.7777 20.9345 15.2764 20.6021L20.1514 17.3521C20.6035 17.0507 20.875 16.5433 20.875 16C20.875 15.4567 20.6035 14.9493 20.1514 14.6479L15.2764 11.3979Z" fill="#6666FF"/>
</svg>
