<svg width="20" height="21" viewBox="0 0 20 21" fill="none" xmlns="http://www.w3.org/2000/svg">
<path fill-rule="evenodd" clip-rule="evenodd" d="M12.4217 14.0998C11.2928 14.9774 9.87425 15.5 8.33366 15.5C4.65176 15.5 1.66699 12.5152 1.66699 8.83329C1.66699 5.15139 4.65176 2.16663 8.33366 2.16663C12.0156 2.16663 15.0003 5.15139 15.0003 8.83329C15.0003 10.3739 14.4778 11.7924 13.6002 12.9213L18.0896 17.4107C18.415 17.7361 18.415 18.2638 18.0896 18.5892C17.7641 18.9147 17.2365 18.9147 16.9111 18.5892L12.4217 14.0998ZM13.3337 8.83329C13.3337 11.5947 11.0951 13.8333 8.33366 13.8333C5.57224 13.8333 3.33366 11.5947 3.33366 8.83329C3.33366 6.07187 5.57224 3.83329 8.33366 3.83329C11.0951 3.83329 13.3337 6.07187 13.3337 8.83329Z" fill="#707A83"/>
</svg>
