<svg width="24" height="24" viewBox="0 0 24 24" fill="none" xmlns="http://www.w3.org/2000/svg">
<path d="M21.7792 5.92576L18.0365 2.18307C17.8581 2.00466 17.5899 1.95102 17.3566 2.04833C17.1233 2.14564 16.9711 2.37145 16.9711 2.62346V4.4948H8.86196C5.07187 4.4948 2.00037 7.5663 2.00037 11.3564C2.00037 11.7007 2.27982 11.9802 2.62415 11.9802H5.11927C5.4636 11.9802 5.74306 11.7007 5.74306 11.3564C5.74306 9.63351 7.13908 8.23749 8.86196 8.23749H16.9711V10.1088C16.9711 10.3608 17.1233 10.5891 17.3566 10.6852C17.5899 10.7825 17.8581 10.7289 18.0365 10.5505L21.7792 6.80778C22.0225 6.56451 22.0225 6.16903 21.7792 5.92576Z" fill="#51596D"/>
<path d="M21.3375 11.9802H18.8424C18.4981 11.9802 18.2186 12.2596 18.2186 12.6039C18.2186 14.3268 16.8226 15.7229 15.0997 15.7229H6.99057V13.8515C6.99057 13.5995 6.83836 13.3712 6.60507 13.2751C6.37177 13.1791 6.1048 13.2327 5.92515 13.4111L2.18246 17.1538C1.93918 17.3971 1.93918 17.7926 2.18246 18.0358L5.92515 21.7785C6.10355 21.9569 6.37177 22.0106 6.60507 21.9133C6.83836 21.816 6.99057 21.5889 6.99057 21.3369V19.4655H15.0997C18.8898 19.4655 21.9613 16.394 21.9613 12.6039C21.9613 12.2596 21.6819 11.9802 21.3375 11.9802Z" fill="#51596D"/>
</svg>
