<svg width="24" height="24" viewBox="2 2 24 24" fill="currentColor" xmlns="http://www.w3.org/2000/svg">
<path d="M21.7792 5.92577L18.0365 2.18308C17.8581 2.00468 17.5899 1.95103 17.3566 2.04834C17.1233 2.14565 16.9711 2.37146 16.9711 2.62347V4.49482H8.8619C5.07181 4.49482 2.00031 7.56632 2.00031 11.3564C2.00031 11.7007 2.27976 11.9802 2.62409 11.9802H5.11921C5.46354 11.9802 5.743 11.7007 5.743 11.3564C5.743 9.63353 7.13902 8.23751 8.8619 8.23751H16.9711V10.1089C16.9711 10.3609 17.1233 10.5892 17.3566 10.6852C17.5899 10.7825 17.8581 10.7289 18.0365 10.5505L21.7792 6.8078C22.0224 6.56452 22.0224 6.16905 21.7792 5.92577Z" />
<path d="M21.3375 11.9802H18.8424C18.4981 11.9802 18.2186 12.2596 18.2186 12.604C18.2186 14.3269 16.8226 15.7229 15.0997 15.7229H6.99057V13.8515C6.99057 13.5995 6.83836 13.3712 6.60507 13.2752C6.37177 13.1791 6.1048 13.2327 5.92515 13.4111L2.18246 17.1538C1.93918 17.3971 1.93918 17.7926 2.18246 18.0359L5.92515 21.7786C6.10355 21.957 6.37177 22.0106 6.60507 21.9133C6.83836 21.816 6.99057 21.5889 6.99057 21.3369V19.4656H15.0997C18.8898 19.4656 21.9613 16.3941 21.9613 12.604C21.9613 12.2596 21.6819 11.9802 21.3375 11.9802Z" />
</svg>
