<svg width="20" height="16" viewBox="0 0 20 16" fill="none" xmlns="http://www.w3.org/2000/svg">
<path d="M8.25311 0.313001C7.72398 0.103471 7.16441 0.22034 6.7605 0.609767L0.541369 6.63314C-0.188196 7.33686 -0.176022 8.47425 0.553543 9.17839L6.80311 15.2026C7.20702 15.5916 7.7218 15.7089 8.25093 15.4989C8.7792 15.2894 9.03137 14.7944 9.03137 14.2455V1.56643C9.03093 1.01756 8.78267 0.521697 8.25311 0.313001Z" fill="#51596D"/>
<path d="M19.0766 0.267103C18.5479 0.0575725 17.9644 0.174442 17.561 0.563868L11.3296 6.58766C10.6005 7.29138 10.6066 8.42836 11.3362 9.13291L17.5827 15.1563C17.987 15.5453 18.5466 15.6626 19.0762 15.4531C19.6044 15.2431 19.901 14.7485 19.901 14.1992V1.52095C19.9005 0.971242 19.6057 0.476633 19.0766 0.267103Z" fill="#51596D"/>
</svg>
