<svg width="24" height="24" viewBox="2 2 24 24" fill="currentColor" xmlns="http://www.w3.org/2000/svg">
<path d="M21.775 16.8904L18.025 13.8547C17.8387 13.7029 17.5787 13.6725 17.36 13.7709C17.14 13.8717 17 14.0854 17 14.321V16.1424H15.9537C15.0862 16.1424 14.2937 15.715 13.8337 15.001L9.78625 8.71097C8.8675 7.28176 7.2825 6.42812 5.54625 6.42812H2V8.85669H5.54625C6.41375 8.85669 7.20625 9.28412 7.66625 9.99812L11.7137 16.2881C12.6337 17.7173 14.2188 18.571 15.9537 18.571H17V20.3924C17 20.628 17.14 20.8417 17.36 20.9425C17.4437 20.9801 17.535 20.9995 17.625 20.9995C17.7688 20.9995 17.9112 20.9522 18.025 20.8587L21.775 17.823C21.9187 17.7076 22 17.5364 22 17.3567C22 17.177 21.9187 17.0058 21.775 16.8904Z"/>
<path d="M21.775 7.17611L18.025 4.1404C17.8387 3.98983 17.5787 3.95825 17.36 4.05783C17.14 4.15618 17 4.37111 17 4.60668V6.42811H15.9537C14.2175 6.42811 12.6325 7.28175 11.7137 8.71097L11.4875 9.06311L12.9612 11.3545L13.8337 9.99811C14.2937 9.28411 15.0862 8.85668 15.9537 8.85668H17V10.6781C17 10.9137 17.14 11.1286 17.36 11.2282C17.4437 11.2658 17.535 11.2853 17.625 11.2853C17.7687 11.2853 17.9112 11.2367 18.025 11.1444L21.775 8.10868C21.9187 7.99333 22 7.82211 22 7.6424C22 7.46268 21.9187 7.29147 21.775 7.17611Z"/>
<path d="M8.53875 13.6446L7.6675 15.001C7.2075 15.715 6.41375 16.1424 5.54625 16.1424H2V18.571H5.54625C7.28125 18.571 8.86625 17.7173 9.78625 16.2881L10.0125 15.936L8.53875 13.6446Z"/>
</svg>
