<svg width="24" height="24" viewBox="0 0 24 24" fill="none" xmlns="http://www.w3.org/2000/svg">
<path d="M21.775 16.8904L18.025 13.8547C17.8387 13.7029 17.5787 13.6725 17.36 13.7709C17.14 13.8717 17 14.0854 17 14.321V16.1424H15.9537C15.0862 16.1424 14.2937 15.715 13.8337 15.001L9.78625 8.71096C8.8675 7.28174 7.2825 6.4281 5.54625 6.4281H2V8.85667H5.54625C6.41375 8.85667 7.20625 9.2841 7.66625 9.9981L11.7137 16.2881C12.6337 17.7173 14.2188 18.571 15.9537 18.571H17V20.3924C17 20.628 17.14 20.8417 17.36 20.9425C17.4437 20.9801 17.535 20.9995 17.625 20.9995C17.7688 20.9995 17.9112 20.9522 18.025 20.8587L21.775 17.823C21.9187 17.7076 22 17.5364 22 17.3567C22 17.177 21.9187 17.0057 21.775 16.8904Z" fill="#51596D"/>
<path d="M21.775 7.1761L18.025 4.14038C17.8388 3.98981 17.5788 3.95824 17.36 4.05781C17.14 4.15617 17 4.3711 17 4.60667V6.4281H15.9538C14.2175 6.4281 12.6325 7.28174 11.7138 8.71095L11.4875 9.0631L12.9613 11.3545L13.8338 9.9981C14.2938 9.2841 15.0863 8.85667 15.9538 8.85667H17V10.6781C17 10.9137 17.14 11.1286 17.36 11.2282C17.4438 11.2658 17.535 11.2852 17.625 11.2852C17.7688 11.2852 17.9113 11.2367 18.025 11.1444L21.775 8.10867C21.9188 7.99331 22 7.8221 22 7.64238C22 7.46267 21.9188 7.29145 21.775 7.1761Z" fill="#51596D"/>
<path d="M8.53875 13.6446L7.6675 15.0009C7.2075 15.7149 6.41375 16.1424 5.54625 16.1424H2V18.5709H5.54625C7.28125 18.5709 8.86625 17.7173 9.78625 16.2881L10.0125 15.9359L8.53875 13.6446Z" fill="#51596D"/>
</svg>
