<svg width="24" height="24" viewBox="1 1 24 24" fill="none" xmlns="http://www.w3.org/2000/svg">
<path d="M6.69538 9.36598H4V15.673H6.69538L11.7908 19.6428C11.7908 19.6428 12.7273 20.4646 12.7273 19.6153C12.7273 18.7636 12.7273 6.07512 12.7273 5.30033C12.7273 4.63361 11.903 5.28507 11.903 5.28507L6.69538 9.36598Z" fill="#51596D"/>
<path d="M15.3589 8.20692C15.0895 7.93103 14.6534 7.93103 14.3839 8.20692C14.1144 8.48401 14.1144 8.93323 14.3839 9.20612C15.2712 10.1184 15.7108 11.3023 15.7126 12.4952C15.7102 13.6905 15.2707 14.8816 14.3839 15.7909C14.1144 16.0662 14.1144 16.5172 14.3839 16.7937C14.5184 16.9316 14.6943 17 14.8726 17C15.0485 17 15.2245 16.9322 15.3589 16.7937C16.5146 15.6068 17.0921 14.048 17.0909 12.4952C17.0921 10.9442 16.5128 9.39024 15.3589 8.20692Z" fill="#51596D"/>
<path d="M17.4883 5.95846C17.2282 5.68051 16.8139 5.68051 16.5549 5.95846C16.3004 6.2364 16.3004 6.68364 16.5549 6.96158C17.9745 8.49118 18.6835 10.4848 18.6846 12.4881C18.6835 14.5003 17.9773 16.5066 16.5549 18.041C16.2993 18.3177 16.3004 18.7655 16.5549 19.0435C16.6841 19.181 16.854 19.25 17.0216 19.25C17.1904 19.25 17.3597 19.181 17.4883 19.0435C19.1624 17.2317 20 14.8575 20 12.4881C20 10.1264 19.1568 7.7606 17.4883 5.95846Z" fill="#51596D"/>
</svg>
