<svg width="25" height="22" viewBox="0 0 25 22" fill="none" xmlns="http://www.w3.org/2000/svg">
<g opacity="0.7">
<path fill-rule="evenodd" clip-rule="evenodd" d="M21.8562 16.4961L18.3004 14.7904C17.965 14.6293 17.7566 14.3057 17.7566 13.9457V12.7382C17.8418 12.6382 17.9315 12.5243 18.0242 12.3986C18.4854 11.7736 18.855 11.0779 19.1237 10.3275C19.6489 10.0965 19.9899 9.59824 19.9899 9.03574V7.60716C19.9899 7.26324 19.8559 6.93002 19.6177 6.66966V4.77002C19.6385 4.57359 19.7204 3.4043 18.839 2.43966C18.0744 1.60287 16.8338 1.17859 15.151 1.17859C13.4682 1.17859 12.2276 1.60287 11.463 2.4393C10.9289 3.02395 10.7491 3.68252 10.6948 4.15538C10.0568 3.83895 9.30488 3.67859 8.45101 3.67859C4.58399 3.67859 4.35879 6.84109 4.35656 6.89288V8.52824C4.11536 8.78038 3.98434 9.07145 3.98434 9.36038V10.594C3.98434 10.9793 4.16412 11.3386 4.47232 11.5815C4.77941 12.6922 5.53465 13.5315 5.8287 13.8261V14.8057C5.8287 15.0868 5.66939 15.3447 5.39283 15.4897L2.91643 16.98C1.96801 17.4765 1.37878 18.429 1.37878 19.4654V20.8215H6.58989H7.33434H23.7121V19.3775C23.7121 18.1497 23.0008 17.0454 21.8562 16.4961ZM6.58989 19.3079V20.1072H2.12323V19.4654C2.12323 18.6904 2.56394 17.9782 3.29238 17.5965L5.7684 16.1061C6.26457 15.8465 6.57277 15.3486 6.57277 14.8057V13.5232L6.45441 13.4172C6.44473 13.4086 5.45573 12.5122 5.16354 11.2904L5.12967 11.149L5.00237 11.0704C4.83114 10.964 4.72878 10.7857 4.72878 10.594V9.36038C4.72878 9.23181 4.81998 9.07895 4.97854 8.94109L5.10101 8.83502L5.10026 6.91359C5.10696 6.81109 5.30089 4.39288 8.45101 4.39288C9.34173 4.39288 10.0918 4.59038 10.6843 4.98002V6.66966C10.4461 6.93002 10.3121 7.26324 10.3121 7.60716V9.03574C10.3121 9.14431 10.3251 9.25109 10.3497 9.35467C10.3559 9.38014 10.3659 9.40427 10.3758 9.42838L10.3758 9.42838C10.3821 9.44347 10.3883 9.45855 10.3936 9.47395C10.3988 9.48905 10.4037 9.50425 10.4086 9.51947C10.4231 9.56472 10.4377 9.61002 10.4591 9.65252L10.4603 9.65431C10.5555 9.84288 10.6944 10.0115 10.8693 10.1461C10.8704 10.1498 10.8715 10.1534 10.8726 10.1569C10.8735 10.1597 10.8745 10.1625 10.8753 10.1654C10.8976 10.2472 10.9211 10.3286 10.9464 10.4082L10.9765 10.5015C10.9797 10.5116 10.9834 10.5218 10.987 10.5321L10.9937 10.5511L11.0025 10.5772C11.0124 10.6069 11.0224 10.6364 11.0327 10.6657C11.0551 10.7282 11.0785 10.7929 11.1057 10.8632C11.1122 10.8797 11.119 10.8953 11.1259 10.9109L11.1259 10.9109C11.1312 10.9231 11.1366 10.9352 11.1418 10.9479C11.1723 11.0225 11.2028 11.0947 11.2349 11.1661C11.2386 11.1743 11.2421 11.1829 11.2456 11.1914L11.2456 11.1915C11.2494 11.2007 11.2531 11.2099 11.2572 11.2186L11.278 11.2636C11.2832 11.2746 11.2885 11.2851 11.2937 11.2955C11.2983 11.3046 11.3029 11.3137 11.3074 11.3232C11.3439 11.3997 11.3796 11.4736 11.4169 11.545C11.4198 11.5507 11.4227 11.5567 11.4256 11.5627C11.4273 11.5661 11.4289 11.5695 11.4306 11.5729C11.4318 11.5754 11.4331 11.5779 11.4344 11.5804C11.4526 11.6151 11.4708 11.6483 11.4891 11.6815L11.4891 11.6815L11.5047 11.71C11.5449 11.7836 11.5844 11.8529 11.6238 11.92C11.6432 11.9529 11.6622 11.985 11.6811 12.0161C11.7347 12.104 11.7857 12.1847 11.8352 12.2597C11.8404 12.2673 11.8454 12.2751 11.8504 12.2828C11.8559 12.2913 11.8614 12.2998 11.8669 12.3079C11.957 12.4418 12.0351 12.5504 12.0999 12.635L12.1464 12.6957C12.1522 12.7031 12.1595 12.7127 12.1658 12.721C12.1684 12.7245 12.1708 12.7277 12.1729 12.7304V13.9122C12.1729 14.2579 11.9763 14.575 11.6603 14.7407L10.6754 15.2561L10.5038 15.2415L10.4338 15.3825L8.33971 16.4786C7.26027 17.0443 6.58989 18.1279 6.58989 19.3079ZM7.33434 19.3079V20.1072H22.9677V19.3775C22.9677 18.4215 22.4142 17.5622 21.5231 17.1347L17.9672 15.429C17.378 15.1461 17.0121 14.5779 17.0121 13.9457V12.4725L17.1048 12.3711C17.1982 12.2693 17.3058 12.1361 17.4163 11.9857C17.8675 11.375 18.2222 10.6886 18.4712 9.94538L18.5308 9.76859L18.7161 9.71395C19.0325 9.62038 19.2454 9.34752 19.2454 9.03574V7.60716C19.2454 7.40681 19.1569 7.22002 18.9961 7.08074L18.8732 6.97431L18.8766 4.70323L18.8767 4.70224C18.8806 4.6656 18.9867 3.67757 18.2725 2.90288C17.6549 2.23252 16.6045 1.89287 15.151 1.89287C13.6923 1.89287 12.6396 2.23502 12.0228 2.91038C11.4221 3.56788 11.4061 4.35823 11.4187 4.61609L11.4288 4.62359V4.75002V6.97431L11.3059 7.08038C11.1451 7.22002 11.0566 7.40681 11.0566 7.60716V9.03574C11.0566 9.27717 11.1853 9.50109 11.4012 9.63467L11.5282 9.71324L11.562 9.85467C11.5903 9.97324 11.6238 10.0886 11.6588 10.2015C11.6601 10.2057 11.6615 10.2099 11.6629 10.214C11.6639 10.2171 11.6649 10.2202 11.6659 10.2232L11.6864 10.2868C11.7206 10.3915 11.7563 10.4929 11.7943 10.59C11.8127 10.6377 11.8303 10.68 11.8475 10.7215C11.8497 10.727 11.852 10.7324 11.8542 10.7379C11.8567 10.7438 11.8592 10.7498 11.8617 10.7558C11.8666 10.7678 11.8716 10.7798 11.8766 10.7915C11.8974 10.8397 11.9179 10.8865 11.9384 10.9311C11.9415 10.9381 11.9448 10.9449 11.948 10.9518C11.9513 10.9587 11.9545 10.9656 11.9577 10.9725C12.0039 11.0722 12.0511 11.1679 12.0984 11.259C12.0984 11.2593 12.0988 11.2597 12.0988 11.2597C12.1877 11.4293 12.2771 11.5825 12.3612 11.7179C12.3642 11.7229 12.3672 11.7275 12.3701 11.7322C12.4096 11.7954 12.4483 11.855 12.4848 11.9097C12.4866 11.9122 12.4881 11.915 12.49 11.9175C12.5674 12.0332 12.637 12.1293 12.6925 12.2032L12.6936 12.205C12.72 12.2404 12.7431 12.27 12.7628 12.2947C12.7645 12.2965 12.766 12.2983 12.7674 12.3001C12.7683 12.3011 12.7691 12.3022 12.7699 12.3032C12.8075 12.3504 12.8306 12.3772 12.8313 12.3782L12.8455 12.3943L12.9177 12.4772V12.4775V13.9125C12.9177 14.5193 12.5726 15.0775 12.0169 15.3686L8.6963 17.1065C7.85619 17.5457 7.33434 18.3897 7.33434 19.3079Z" fill="#5D5FEF"/>
</g>
</svg>
