<svg width="25" height="24" viewBox="0 0 25 24" fill="none" xmlns="http://www.w3.org/2000/svg">
<g opacity="0.7">
<path fill-rule="evenodd" clip-rule="evenodd" d="M16.0122 14.8136L20.6627 19.4786C20.7823 19.5988 20.7785 19.7899 20.654 19.9055C20.5932 19.9617 20.5153 19.9897 20.4371 19.9897C20.3547 19.9897 20.2727 19.9589 20.2114 19.8971L15.5496 15.2205C14.4117 16.1307 12.9516 16.6792 11.3608 16.6792C7.73655 16.6792 4.78833 13.8355 4.78833 10.3396C4.78833 6.84377 7.73655 4 11.3608 4C14.985 4 17.9333 6.84377 17.9333 10.3396C17.9333 12.0842 17.1984 13.6661 16.0122 14.8136ZM5.41428 10.3396C5.41428 13.5025 8.08176 16.0755 11.3608 16.0755C14.6395 16.0755 17.3073 13.5025 17.3073 10.3396C17.3073 7.17675 14.6398 4.60377 11.3608 4.60377C8.08176 4.60377 5.41428 7.17675 5.41428 10.3396Z" fill="#5D5FEF"/>
<path d="M20.6627 19.4786L20.8399 19.3023L20.8398 19.3021L20.6627 19.4786ZM16.0122 14.8136L15.8384 14.6339L15.656 14.8104L15.8352 14.9901L16.0122 14.8136ZM20.654 19.9055L20.8237 20.0891L20.824 20.0887L20.654 19.9055ZM20.2114 19.8971L20.389 19.7211L20.3885 19.7206L20.2114 19.8971ZM15.5496 15.2205L15.7267 15.044L15.5685 14.8853L15.3935 15.0253L15.5496 15.2205ZM20.8398 19.3021L16.1893 14.6371L15.8352 14.9901L20.4857 19.6551L20.8398 19.3021ZM20.824 20.0887C21.0521 19.877 21.0594 19.5229 20.8399 19.3023L20.4855 19.655C20.4964 19.6659 20.5001 19.6779 20.4999 19.6887C20.4997 19.6995 20.4955 19.7115 20.4839 19.7223L20.824 20.0887ZM20.4371 20.2397C20.5749 20.2397 20.7144 20.1901 20.8237 20.0891L20.4842 19.722C20.4721 19.7332 20.4557 19.7397 20.4371 19.7397V20.2397ZM20.0339 20.0731C20.1455 20.1856 20.2929 20.2397 20.4371 20.2397V19.7397C20.4166 19.7397 20.4 19.7322 20.389 19.7211L20.0339 20.0731ZM15.3726 15.397L20.0343 20.0736L20.3885 19.7206L15.7267 15.044L15.3726 15.397ZM11.3608 16.9292C13.0098 16.9292 14.5246 16.3605 15.7058 15.4158L15.3935 15.0253C14.2987 15.9009 12.8934 16.4292 11.3608 16.4292V16.9292ZM4.53833 10.3396C4.53833 13.982 7.60706 16.9292 11.3608 16.9292V16.4292C7.86605 16.4292 5.03833 13.689 5.03833 10.3396H4.53833ZM11.3608 3.75C7.60706 3.75 4.53833 6.69728 4.53833 10.3396H5.03833C5.03833 6.99027 7.86605 4.25 11.3608 4.25V3.75ZM18.1833 10.3396C18.1833 6.69728 15.1145 3.75 11.3608 3.75V4.25C14.8555 4.25 17.6833 6.99027 17.6833 10.3396H18.1833ZM16.186 14.9933C17.4177 13.8018 18.1833 12.1564 18.1833 10.3396H17.6833C17.6833 12.0121 16.9791 13.5304 15.8384 14.6339L16.186 14.9933ZM11.3608 15.8255C8.21126 15.8255 5.66428 13.356 5.66428 10.3396H5.16428C5.16428 13.649 7.95227 16.3255 11.3608 16.3255V15.8255ZM17.0573 10.3396C17.0573 13.356 14.51 15.8255 11.3608 15.8255V16.3255C14.769 16.3255 17.5573 13.649 17.5573 10.3396H17.0573ZM11.3608 4.85377C14.5103 4.85377 17.0573 7.32325 17.0573 10.3396H17.5573C17.5573 7.03026 14.7693 4.35377 11.3608 4.35377V4.85377ZM5.66428 10.3396C5.66428 7.32325 8.21126 4.85377 11.3608 4.85377V4.35377C7.95227 4.35377 5.16428 7.03026 5.16428 10.3396H5.66428Z" fill="#5D5FEF"/>
</g>
</svg>
