<svg width="23" height="21" viewBox="0 0 23 21" fill="none" xmlns="http://www.w3.org/2000/svg">
<path fill-rule="evenodd" clip-rule="evenodd" d="M16.6302 0.347344C19.8084 0.347344 22.3479 2.89296 22.6739 6.40164C22.6993 6.55662 22.8049 7.37226 22.4837 8.70198C22.0207 10.621 20.9512 12.3656 19.3918 13.7479L11.478 20.6518L3.69788 13.7474C2.13841 12.3656 1.06899 10.6205 0.606003 8.70198C0.284747 7.37184 0.390401 6.5562 0.41617 6.40122C0.741721 2.89254 3.28171 0.346924 6.45948 0.346924C8.54293 0.346924 10.4022 1.4385 11.4832 3.24744C12.5741 1.4616 14.5128 0.347344 16.6302 0.347344ZM18.8171 13.1233C20.2452 11.8583 21.2248 10.2619 21.6474 8.50962C21.9453 7.2767 21.8315 6.56881 21.8259 6.53398C21.8258 6.53325 21.8257 6.53282 21.8257 6.53268C21.5409 3.4188 19.3583 1.18734 16.6306 1.18734C14.5699 1.18734 12.7042 2.42634 11.8766 4.34322L11.481 5.26008L11.0855 4.34322C10.2446 2.39652 8.47249 1.18692 6.45948 1.18692C3.73138 1.18692 1.54916 3.41838 1.26999 6.49236L1.26355 6.53478C1.26354 6.53489 1.26346 6.53541 1.26331 6.53632C1.25739 6.57373 1.14541 7.28057 1.44221 8.5092C1.86526 10.2614 2.84449 11.8574 4.27511 13.125L11.4832 19.522L18.8171 13.1233Z" fill="#5D5FEF"/>
<path d="M7.25019 2.89966C4.882 2.89966 2.95532 4.78378 2.95532 7.09966C2.95532 7.33192 3.1473 7.51966 3.38481 7.51966C3.62232 7.51966 3.8143 7.33192 3.8143 7.09966C3.8143 5.24704 5.35573 3.73966 7.25019 3.73966C7.4877 3.73966 7.67968 3.55192 7.67968 3.31966C7.67968 3.0874 7.48727 2.89966 7.25019 2.89966Z" fill="#5D5FEF"/>
</svg>
