<svg width="25" height="24" viewBox="0 0 25 24" fill="none" xmlns="http://www.w3.org/2000/svg">
<g opacity="0.7">
<path fill-rule="evenodd" clip-rule="evenodd" d="M24.6113 8.66882C24.8179 9.29618 24.6489 9.97106 24.1699 10.4309L19.9067 14.5248C19.725 14.6995 19.6416 14.9506 19.6845 15.1968L20.6912 20.977C20.8043 21.6264 20.5387 22.2701 19.9973 22.6579C19.6913 22.8773 19.3327 22.9882 18.9726 22.9882C18.6954 22.9882 18.4166 22.9224 18.1594 22.789L12.8895 20.0597C12.6649 19.9435 12.3969 19.9435 12.1722 20.0597L6.90287 22.789C6.30986 23.0966 5.60575 23.0462 5.06488 22.6579C4.52352 22.2701 4.25795 21.6264 4.371 20.977L5.37722 15.1963C5.4201 14.9506 5.33677 14.6991 5.15502 14.5243L0.891872 10.4309C0.412883 9.97106 0.243799 9.29618 0.450403 8.66882C0.657494 8.04146 1.1969 7.59362 1.85911 7.49906L7.75121 6.65522C8.00216 6.61922 8.21948 6.46418 8.33155 6.24002L10.9662 0.980662C11.262 0.389783 11.8623 0.022583 12.5309 0.022583C13.1999 0.022583 13.8002 0.389783 14.096 0.980662L16.7302 6.24002C16.8423 6.46418 17.0591 6.61922 17.31 6.65522L23.2021 7.49858C23.8648 7.59362 24.4042 8.04146 24.6113 8.66882ZM19.7308 21.1392L18.7246 15.3591C18.6271 14.8008 18.8147 14.232 19.226 13.837L23.4891 9.74354C23.704 9.53714 23.7766 9.24626 23.6841 8.96546C23.5915 8.68418 23.359 8.49122 23.0623 8.4485L17.1702 7.60514C16.6015 7.52402 16.1104 7.17266 15.8565 6.66482L13.2218 1.40546C13.0888 1.1405 12.8305 0.982582 12.5304 0.982582C12.2307 0.982582 11.972 1.1405 11.8394 1.40546L9.20475 6.66482C8.95088 7.17266 8.45922 7.52402 7.89057 7.60514L1.99896 8.4485C1.70221 8.49122 1.46978 8.68418 1.3772 8.96546C1.28413 9.24626 1.35722 9.53714 1.57211 9.74354L5.83574 13.8375C6.247 14.232 6.4346 14.8013 6.33763 15.3591L5.33142 21.1392C5.28123 21.4306 5.39525 21.708 5.63791 21.8818C5.88057 22.055 6.18317 22.0762 6.44971 21.9398L11.7186 19.2106C11.9729 19.0791 12.2522 19.0128 12.5309 19.0128C12.8096 19.0128 13.0893 19.0791 13.3432 19.2101L18.613 21.9398C18.8786 22.0762 19.1812 22.055 19.4243 21.8818C19.667 21.708 19.7815 21.4301 19.7308 21.1392Z" fill="#5D5FEF"/>
</g>
</svg>
