<svg width="25" height="24" viewBox="0 0 25 24" fill="none" xmlns="http://www.w3.org/2000/svg">
<path fill-rule="evenodd" clip-rule="evenodd" d="M1.01715 12C1.01715 5.9346 6.03646 1 12.206 1C18.3755 1 23.3948 5.9346 23.3948 12C23.3948 18.0654 18.3755 23 12.206 23C6.03646 23 1.01715 18.0654 1.01715 12ZM1.76307 12C1.76307 17.661 6.44784 22.2667 12.206 22.2667C17.9641 22.2667 22.6489 17.661 22.6489 12C22.6489 6.33903 17.9641 1.73333 12.206 1.73333C6.44784 1.73333 1.76307 6.33903 1.76307 12Z" fill="#5D5FEF"/>
<path fill-rule="evenodd" clip-rule="evenodd" d="M9.22229 12C9.22229 10.3826 10.5608 9.06665 12.206 9.06665C13.8511 9.06665 15.1897 10.3826 15.1897 12C15.1897 13.6173 13.8511 14.9333 12.206 14.9333C10.5608 14.9333 9.22229 13.6173 9.22229 12ZM9.96821 12C9.96821 13.2133 10.9719 14.2 12.206 14.2C13.4401 14.2 14.4437 13.2133 14.4437 12C14.4437 10.7867 13.4401 9.79998 12.206 9.79998C10.9719 9.79998 9.96821 10.7867 9.96821 12Z" fill="#5D5FEF"/>
<path fill-rule="evenodd" clip-rule="evenodd" d="M6.98456 12C6.98456 9.16937 9.32676 6.8667 12.206 6.8667C15.0853 6.8667 17.4275 9.16937 17.4275 12C17.4275 14.8307 15.0853 17.1334 12.206 17.1334C9.32676 17.1334 6.98456 14.8307 6.98456 12ZM7.73048 12C7.73048 14.4263 9.73813 16.4 12.206 16.4C14.6739 16.4 16.6816 14.4263 16.6816 12C16.6816 9.5738 14.6739 7.60003 12.206 7.60003C9.73813 7.60003 7.73048 9.5738 7.73048 12Z" fill="#5D5FEF"/>
</svg>
