<svg width="23" height="24" viewBox="0 0 23 24" fill="none" xmlns="http://www.w3.org/2000/svg">
<path fill-rule="evenodd" clip-rule="evenodd" d="M0.378784 12C0.378784 5.9346 5.38815 1 11.5455 1C17.7028 1 22.7121 5.9346 22.7121 12C22.7121 18.0654 17.7028 23 11.5455 23C5.38815 23 0.378784 18.0654 0.378784 12ZM1.12323 12C1.12323 17.661 5.79871 22.2667 11.5455 22.2667C17.2922 22.2667 21.9677 17.661 21.9677 12C21.9677 6.33903 17.2922 1.73333 11.5455 1.73333C5.79871 1.73333 1.12323 6.33903 1.12323 12Z" fill="#5D5FEF"/>
<path d="M11.5455 0.95C5.36125 0.95 0.328784 5.90628 0.328784 12H0.428784C0.428784 5.96292 5.41505 1.05 11.5455 1.05V0.95ZM22.7621 12C22.7621 5.90628 17.7297 0.95 11.5455 0.95V1.05C17.6758 1.05 22.6621 5.96292 22.6621 12H22.7621ZM11.5455 23.05C17.7297 23.05 22.7621 18.0937 22.7621 12H22.6621C22.6621 18.0371 17.6758 22.95 11.5455 22.95V23.05ZM0.328784 12C0.328784 18.0937 5.36125 23.05 11.5455 23.05V22.95C5.41505 22.95 0.428784 18.0371 0.428784 12H0.328784ZM11.5455 22.2167C5.82561 22.2167 1.17323 17.6326 1.17323 12H1.07323C1.07323 17.6893 5.77181 22.3167 11.5455 22.3167V22.2167ZM21.9177 12C21.9177 17.6326 17.2653 22.2167 11.5455 22.2167V22.3167C17.3191 22.3167 22.0177 17.6893 22.0177 12H21.9177ZM11.5455 1.78333C17.2653 1.78333 21.9177 6.36735 21.9177 12H22.0177C22.0177 6.31071 17.3191 1.68333 11.5455 1.68333V1.78333ZM1.17323 12C1.17323 6.36735 5.82561 1.78333 11.5455 1.78333V1.68333C5.77181 1.68333 1.07323 6.31071 1.07323 12H1.17323Z" fill="#5D5FEF"/>
<path d="M11.5454 3.20001C11.34 3.20001 11.1732 3.36391 11.1732 3.56668V12H5.58987C5.38441 12 5.21765 12.1639 5.21765 12.3667C5.21765 12.5694 5.38441 12.7333 5.58987 12.7333H11.5454C11.7509 12.7333 11.9177 12.5694 11.9177 12.3667V3.56668C11.9177 3.36391 11.7509 3.20001 11.5454 3.20001Z" fill="#5D5FEF" stroke="#5D5FEF" stroke-width="0.1"/>
</svg>
