<svg width="25" height="25" viewBox="0 0 25 25" fill="none" xmlns="http://www.w3.org/2000/svg">
<g opacity="0.7">
<path fill-rule="evenodd" clip-rule="evenodd" d="M5.15875 2.78448H4.41283H1.42914V21.7026H4.41283H5.15875H23.8068V2.78448H5.15875ZM4.41283 20.975H2.17506V3.5121H4.41283V20.975ZM5.15875 20.975H23.0609V3.5121H5.15875V20.975Z" fill="#5D5FEF"/>
<path fill-rule="evenodd" clip-rule="evenodd" d="M11.8691 16.2964C11.8389 17.4762 10.7655 18.4283 9.44781 18.4283C8.11112 18.4283 7.02356 17.4493 7.02356 16.2455C7.02356 15.0416 8.11112 14.0626 9.44781 14.0626C10.099 14.0626 10.6901 14.2962 11.1261 14.6738V9.69688V8.7095V7.51402C11.1261 7.33502 11.2597 7.18259 11.4405 7.15457L18.5268 6.06315C18.6372 6.04641 18.7446 6.07697 18.8274 6.14609C18.9106 6.21522 18.9583 6.31636 18.9583 6.42259V6.7864V8.60545V14.0626C18.9583 15.2664 17.8708 16.2455 16.5341 16.2455C15.1974 16.2455 14.1098 15.2664 14.1098 14.0626C14.1098 12.8587 15.1974 11.8797 16.5341 11.8797C17.1853 11.8797 17.7764 12.1133 18.2124 12.4909V9.0311L11.8721 10.0076V16.2826C11.8721 16.285 11.8713 16.2873 11.8706 16.2897C11.8699 16.2918 11.8693 16.294 11.8691 16.2964ZM14.8557 14.0626C14.8557 14.8652 15.6088 15.5178 16.5341 15.5178C17.4594 15.5178 18.2124 14.8652 18.2124 14.0626C18.2124 13.26 17.4594 12.6074 16.5341 12.6074C15.6088 12.6074 14.8557 13.26 14.8557 14.0626ZM11.8721 7.82471L18.2124 6.84788V8.29439L11.8721 9.27122V8.7095V7.82471ZM11.1261 16.2455C11.1261 15.4429 10.3731 14.7902 9.44781 14.7902C8.52249 14.7902 7.76948 15.4429 7.76948 16.2455C7.76948 17.048 8.52249 17.7007 9.44781 17.7007C10.3731 17.7007 11.1261 17.048 11.1261 16.2455Z" fill="#5D5FEF"/>
</g>
</svg>
