<svg width="25" height="24" viewBox="0 0 25 24" fill="none" xmlns="http://www.w3.org/2000/svg">
<g opacity="0.7">
<path d="M19.325 11.5862C19.0969 11.5862 18.9117 11.7711 18.9117 12V14.4827C18.9117 17.6772 16.3167 20.2758 13.1266 20.2758C9.93651 20.2758 7.34146 17.6772 7.34146 14.4827V12C7.34146 11.7711 7.15634 11.5862 6.92824 11.5862C6.70014 11.5862 6.51501 11.7711 6.51501 12V14.4827C6.51501 17.9938 9.26048 20.8672 12.7134 21.0823V23.1724H10.6473C10.4192 23.1724 10.234 23.3574 10.234 23.5862C10.234 23.815 10.4192 24 10.6473 24H15.6059C15.834 24 16.0192 23.815 16.0192 23.5862C16.0192 23.3574 15.834 23.1724 15.6059 23.1724H13.5398V21.0823C16.9927 20.8672 19.7382 17.9934 19.7382 14.4827V12C19.7382 11.7711 19.5531 11.5862 19.325 11.5862Z" fill="#5D5FEF"/>
<path fill-rule="evenodd" clip-rule="evenodd" d="M17.672 14.4828C17.672 16.9924 15.6328 19.0345 13.1266 19.0345C10.6204 19.0345 8.58112 16.9924 8.58112 14.4828V4.55173C8.58112 2.04207 10.6204 0 13.1266 0C15.6328 0 17.672 2.04207 17.672 4.55173V14.4828ZM13.1266 0.827587C11.0762 0.827587 9.40757 2.49807 9.40757 4.55173V14.4828C9.40757 16.5364 11.0762 18.2069 13.1266 18.2069C15.177 18.2069 16.8456 16.5364 16.8456 14.4828V4.55173C16.8456 2.49807 15.177 0.827587 13.1266 0.827587Z" fill="#5D5FEF"/>
</g>
</svg>
