<svg width="24" height="24" viewBox="0 0 24 24" fill="none" xmlns="http://www.w3.org/2000/svg">
<g opacity="0.7">
<path fill-rule="evenodd" clip-rule="evenodd" d="M21.5494 1.00321C21.6659 0.989615 21.7811 1.02401 21.8685 1.09961C21.9559 1.17521 22.006 1.28481 22.006 1.40001V3.80641V5.49081V15.4384C22.006 15.441 22.0053 15.4434 22.0046 15.4458C22.0039 15.4482 22.0032 15.4506 22.0032 15.4532C21.9708 17.4136 20.1714 19 17.9615 19C15.7313 19 13.9169 17.3852 13.9169 15.4C13.9169 13.4148 15.7313 11.8 17.9615 11.8C19.2852 11.8 20.4586 12.3712 21.1971 13.2488V5.94601L9.4679 7.44721V19.0484C9.4679 19.0664 9.46331 19.0828 9.45868 19.0993C9.4563 19.1078 9.45391 19.1164 9.45212 19.1252C9.46021 19.216 9.4679 19.3072 9.4679 19.4C9.4679 21.3852 7.65351 23 5.42334 23C3.19317 23 1.37878 21.3852 1.37878 19.4C1.37878 17.4148 3.19317 15.8 5.42334 15.8C6.74712 15.8 7.92045 16.3712 8.65898 17.2492V7.09561V5.41081V3.00401C8.65898 2.80281 8.80985 2.63361 9.01126 2.60761L21.5494 1.00321ZM2.1877 19.4C2.1877 20.9436 3.63929 22.2 5.42334 22.2C7.20739 22.2 8.65899 20.9436 8.65899 19.4C8.65899 17.8564 7.20739 16.6 5.42334 16.6C3.63929 16.6 2.1877 17.8564 2.1877 19.4ZM17.9615 18.2C16.1774 18.2 14.7258 16.9436 14.7258 15.4C14.7258 13.8564 16.1774 12.6 17.9615 12.6C19.7455 12.6 21.1971 13.8564 21.1971 15.4C21.1971 16.9436 19.7455 18.2 17.9615 18.2ZM9.4679 5.41082V6.64042L21.1971 5.13921V3.80641V1.85481L9.4679 3.35561V5.41082Z" fill="#5D5FEF"/>
</g>
</svg>
